<?xml version="1.0" encoding="utf-8"?>
<!-- Generator: Adobe Illustrator 16.0.0, SVG Export Plug-In . SVG Version: 6.00 Build 0)  -->
<!DOCTYPE svg PUBLIC "-//W3C//DTD SVG 1.1//EN" "http://www.w3.org/Graphics/SVG/1.1/DTD/svg11.dtd">
<svg version="1.1" id="Layer_1" xmlns="http://www.w3.org/2000/svg" xmlns:xlink="http://www.w3.org/1999/xlink" x="0px" y="0px"
	 width="910.836px" height="496px" viewBox="0 0 910.836 496" enable-background="new 0 0 910.836 496" xml:space="preserve">
<g>
	<defs>
		<rect id="SVGID_1_" width="910.836" height="496"/>
	</defs>
	<clipPath id="SVGID_2_">
		<use xlink:href="#SVGID_1_"  overflow="visible"/>
	</clipPath>
	<rect opacity="0" clip-path="url(#SVGID_2_)" width="910.836" height="496"/>
	<path clip-path="url(#SVGID_2_)" fill="none" stroke="#FF0000" stroke-width="2.004" d="M780.68,217.894
		c0,0,8.236,11.431,14.182,15.549s-3.207,10.52,0.455,16.694c3.662,6.174,16.01,9.836,18.754,5.49
		c2.746-4.346,11.898-16.699,3.662-22.185c-8.234-5.485-24.705-13.721-21.959-13.721c2.744,0-14.182-11.659-14.182-11.659
		S780.225,219.949,780.68,217.894z"/>
	<path clip-path="url(#SVGID_2_)" fill="none" stroke="#0000FF" stroke-width="7.0141" d="M641.746,324.746
		c0,0-9.088-70.488-25.904-67.502c-16.816,2.984,24.082,61.08,3.633,71.18s-29.541-66.818-42.268-57.404
		s40.445,76.459,24.088,81.279c-16.359,4.822-42.721-75.768-54.994-70.717c-12.271,5.049,20.455,66.588,20.455,66.588"/>
	<path clip-path="url(#SVGID_2_)" fill="none" stroke="#FF0000" stroke-width="7.0141" d="M764.436,321.525
		c0,0,9.146-70.205,26.074-67.23c16.926,2.973-24.24,60.834-3.658,70.893c20.584,10.059,29.734-66.547,42.543-57.172
		s-40.709,76.15-24.244,80.951c16.465,4.803,43-75.461,55.352-70.432c12.354,5.029-20.588,66.318-20.588,66.318"/>
	<polygon clip-path="url(#SVGID_2_)" fill="none" stroke="#000000" stroke-width="8.0162" points="758.711,82.901 756.221,149.001 
		702.99,188.266 639.105,171.128 612.672,110.492 643.596,52.02 708.59,39.74 	"/>
	<polygon clip-path="url(#SVGID_2_)" fill="none" stroke="#000000" stroke-width="8.0162" points="764.07,100.017 746.441,163.771 
		685.605,189.737 627.375,158.362 615.6,93.271 659.143,43.479 725.219,46.481 	"/>
	<path clip-path="url(#SVGID_2_)" fill="none" stroke="#000000" stroke-width="8.0162" d="M648.408,116.487
		c0,0,3.695,12.664,30.061-3.421s-10.023-16.867,13.707-31.37c23.732-14.502,32.699,2.896,32.699,2.896"/>
	<path clip-path="url(#SVGID_2_)" fill="none" stroke="#000000" stroke-width="8.0162" d="M732.393,122.893
		c0,0-0.539-13.181-30-3.916c-29.463,9.265,5.668,18.785-20.857,27.147s-31.041-10.684-31.041-10.684"/>
	<path clip-path="url(#SVGID_2_)" fill="none" stroke="#000000" stroke-width="3.0061" d="M508.156,364.736
		c10.207-0.229,23.426-74.047,192.793-76.783c169.365-2.734,200,72.453,200,72.453"/>
	<path clip-path="url(#SVGID_2_)" fill="#CCFF66" d="M682.625,304.193V262.16c0,0-27.953-5.508-31.521-17.452
		s25.576-19.981,45.799-20.21c20.221-0.229,41.029,6.658,37.467,17.224s-25.568,19.065-25.568,19.065s2.258,42.268-1.311,42.268
		L682.625,304.193z"/>
	<path clip-path="url(#SVGID_2_)" fill="none" stroke="#000000" stroke-width="5.0101" d="M682.625,304.193V262.16
		c0,0-27.953-5.508-31.521-17.452s25.576-19.981,45.797-20.21c20.223-0.229,41.031,6.658,37.469,17.224
		s-25.568,19.065-25.568,19.065s2.258,42.268-1.311,42.268L682.625,304.193z"/>
	<g clip-path="url(#SVGID_2_)">
		<text transform="matrix(1 0 0 1 679.7383 336.5352)" font-family="'Helvetica'" font-size="24.0485">CD4</text>
	</g>
	<path clip-path="url(#SVGID_2_)" fill="none" stroke="#000000" stroke-width="3.0061" d="M720.197,174.098
		c1.443,2.712,39.385,44.883,39.385,44.883s3.432,12.551-15.33,12.107c-18.76-0.442-17.436-2.31-18.717-14.729
		c-1.281-12.421,7.217-16.48,7.217-16.48s-22.17-22.517-19.934-20.925C715.055,180.546,720.197,174.098,720.197,174.098z"/>
	<path clip-path="url(#SVGID_2_)" fill="none" stroke="#000000" stroke-width="3.0061" d="M728.367,170.909
		c2.639,1.744,39.404,44.857,39.404,44.857s13.111,4.735,17.791-14.626c4.678-19.362,2.223-18.176-11.336-20.686
		c-13.557-2.51-20.447,5.852-20.447,5.852s-19.104-24.987-17.938-22.531C737.008,166.23,728.367,170.909,728.367,170.909z"/>
	<g clip-path="url(#SVGID_2_)">
		<text transform="matrix(1 0 0 1 790.4238 380.7676)" font-family="'Helvetica-Bold'" font-size="24.0485">CXCR4</text>
	</g>
	<g clip-path="url(#SVGID_2_)">
		<text transform="matrix(1 0 0 1 560.6338 380.7676)" font-family="'Helvetica'" font-size="24.0485">CCR5</text>
	</g>
	<path clip-path="url(#SVGID_2_)" fill="none" stroke="#0000FF" stroke-width="2.004" d="M120.832,225.976
		c0,0-5.736,11.331-6.575,17.073c-0.84,5.742-9.718,4.421-13.14,10.104c-3.421,5.682-1.261,14.721,3.338,13.686
		c4.6-1.035,18.229-3.225,19.218-11.049c0.988-7.823,0.782-21.857,1.912-20.328c1.131,1.529,3.47-14.778,3.47-14.778
		S119.002,226.935,120.832,225.976z"/>
	<path clip-path="url(#SVGID_2_)" fill="none" stroke="#0000FF" stroke-width="7.0141" d="M162.327,325.115
		c0,0-9.087-70.488-25.903-67.504c-16.817,2.984,24.082,61.08,3.633,71.18c-20.45,10.1-29.542-66.816-42.268-57.404
		c-12.726,9.414,40.446,76.461,24.087,81.281c-16.358,4.82-42.72-75.768-54.993-70.719c-12.272,5.051,20.455,66.59,20.455,66.59"/>
	<path clip-path="url(#SVGID_2_)" fill="none" stroke="#FF0000" stroke-width="7.0141" d="M285.576,321.836
		c0,0,9.146-70.203,26.072-67.23s-24.239,60.834-3.656,70.893c20.582,10.059,29.734-66.547,42.542-57.172
		c12.809,9.375-40.709,76.15-24.244,80.951c16.465,4.803,42.999-75.461,55.352-70.432s-20.588,66.318-20.588,66.318"/>
	<polygon clip-path="url(#SVGID_2_)" fill="none" stroke="#000000" stroke-width="8.0162" points="281.428,73.883 278.937,139.982 
		225.706,179.247 161.821,162.109 135.389,101.475 166.312,43.002 231.305,30.722 	"/>
	<polygon clip-path="url(#SVGID_2_)" fill="none" stroke="#000000" stroke-width="8.0162" points="286.786,90.998 269.156,154.753 
		208.322,180.719 150.092,149.344 138.315,84.253 181.859,34.462 247.936,37.464 	"/>
	<path clip-path="url(#SVGID_2_)" fill="none" stroke="#000000" stroke-width="8.0162" d="M171.124,107.47
		c0,0,3.696,12.663,30.061-3.422c26.365-16.085-10.023-16.867,13.708-31.369c23.732-14.503,32.699,2.896,32.699,2.896"/>
	<path clip-path="url(#SVGID_2_)" fill="none" stroke="#000000" stroke-width="8.0162" d="M255.108,113.875
		c0,0-0.539-13.181-30.001-3.917c-29.461,9.265,5.669,18.785-20.856,27.147c-26.525,8.363-31.04-10.683-31.04-10.683"/>
	<path clip-path="url(#SVGID_2_)" fill="none" stroke="#000000" stroke-width="3.0061" d="M29.059,364.434
		c10.207-0.227,23.426-74.045,192.793-76.781c169.365-2.734,199.999,72.451,199.999,72.451"/>
	<path clip-path="url(#SVGID_2_)" fill="#CCFF66" d="M203.167,304.154v-42.033c0,0-27.953-5.51-31.522-17.453
		c-3.569-11.944,25.576-19.98,45.798-20.21c20.223-0.229,41.031,6.658,37.469,17.224c-3.562,10.566-25.569,19.066-25.569,19.066
		s2.259,42.266-1.311,42.266L203.167,304.154z"/>
	<path clip-path="url(#SVGID_2_)" fill="none" stroke="#000000" stroke-width="5.0101" d="M203.167,304.154v-42.033
		c0,0-27.953-5.51-31.522-17.453c-3.569-11.944,25.576-19.981,45.798-20.21c20.223-0.229,41.031,6.658,37.469,17.224
		c-3.562,10.566-25.569,19.066-25.569,19.066s2.259,42.266-1.311,42.266L203.167,304.154z"/>
	<g clip-path="url(#SVGID_2_)">
		<text transform="matrix(1 0 0 1 200.8984 336.6777)" font-family="'Helvetica'" font-size="24.0485">CD4</text>
	</g>
	<path clip-path="url(#SVGID_2_)" fill="none" stroke="#000000" stroke-width="3.0061" d="M167.472,158.201
		c-1.994,2.602-27.263,58.473-27.263,58.473s-10.431,8.823-16.96-9.992s-4.299-18.306,6.805-24.938
		c11.104-6.634,18.032,0.05,18.032,0.05s12.785-31.729,12.129-28.821C159.558,155.879,167.472,158.201,167.472,158.201z"/>
	<path clip-path="url(#SVGID_2_)" fill="none" stroke="#000000" stroke-width="3.0061" d="M173.703,164.78
		c-0.656,3.381-27.307,58.58-27.307,58.58s0.396,15.106,20.125,11.438c19.729-3.667,17.727-5.605,15.096-20.199
		c-2.63-14.594-12.935-17.864-12.935-17.864s16.254-29.794,14.396-27.575C181.222,171.38,173.703,164.78,173.703,164.78z"/>
	<g clip-path="url(#SVGID_2_)">
		<text transform="matrix(1 0 0 1 311.127 380.7676)" font-family="'Helvetica'" font-size="24.0485">CXCR4</text>
	</g>
	<g clip-path="url(#SVGID_2_)">
		<text transform="matrix(1 0 0 1 81.6641 380.7676)" font-family="'Helvetica-Bold'" font-size="24.0485">CCR5</text>
	</g>
	<g clip-path="url(#SVGID_2_)">
		<text transform="matrix(1 0 0 1 32.1528 446.3994)" font-family="'Helvetica'" font-size="24.0485">The majority of HIV variants use </text>
	</g>
	<g clip-path="url(#SVGID_2_)">
		<text transform="matrix(1 0 0 1 32.1528 475.457)" font-family="'Helvetica'" font-size="24.0485">CCR5</text>
	</g>
	<g clip-path="url(#SVGID_2_)">
		<text transform="matrix(1 0 0 1 511.0303 448.9062)"><tspan x="0" y="0" font-family="'Helvetica'" font-size="24.0485">Progression to</tspan><tspan x="155.059" y="0" font-family="'Helvetica'" font-size="24.0485" letter-spacing="-1"> </tspan><tspan x="160.441" y="0" font-family="'Helvetica'" font-size="24.0485">AIDS is associated </tspan></text>
	</g>
	<g clip-path="url(#SVGID_2_)">
		<text transform="matrix(1 0 0 1 511.0303 477.9639)" font-family="'Helvetica'" font-size="24.0485">with switching to CXCR4.</text>
	</g>
	<g clip-path="url(#SVGID_2_)">
		<text transform="matrix(1 0 0 1 20.7852 82.666)" font-family="'Helvetica'" font-size="42.0849">R5</text>
	</g>
	<g clip-path="url(#SVGID_2_)">
		<text transform="matrix(1 0 0 1 498.6641 83.168)" font-family="'Helvetica'" font-size="42.0849">X4</text>
	</g>
</g>
</svg>
