<?xml version="1.0" encoding="UTF-8" standalone="no"?>
<!-- Generator: Adobe Illustrator 12.0.1, SVG Export Plug-In . SVG Version: 6.00 Build 51448)  -->

<svg
   xmlns:dc="http://purl.org/dc/elements/1.1/"
   xmlns:cc="http://creativecommons.org/ns#"
   xmlns:rdf="http://www.w3.org/1999/02/22-rdf-syntax-ns#"
   xmlns:svg="http://www.w3.org/2000/svg"
   xmlns="http://www.w3.org/2000/svg"
   xmlns:sodipodi="http://sodipodi.sourceforge.net/DTD/sodipodi-0.dtd"
   xmlns:inkscape="http://www.inkscape.org/namespaces/inkscape"
   version="1.1"
   id="Layer_1"
   width="331.97159"
   height="215.36676"
   viewBox="0 0 331.97158 215.36676"
   overflow="visible"
   enable-background="new 0 0 196.38 185.356"
   xml:space="preserve"
   inkscape:version="0.48.2 r9819"
   sodipodi:docname="DNA_sequence.svg"
   style="overflow:visible"><metadata
   id="metadata65"><rdf:RDF><cc:Work
       rdf:about=""><dc:format>image/svg+xml</dc:format><dc:type
         rdf:resource="http://purl.org/dc/dcmitype/StillImage" /></cc:Work></rdf:RDF></metadata><defs
   id="defs63" /><sodipodi:namedview
   pagecolor="#ffffff"
   bordercolor="#666666"
   borderopacity="1"
   objecttolerance="10"
   gridtolerance="10"
   guidetolerance="10"
   inkscape:pageopacity="0"
   inkscape:pageshadow="2"
   inkscape:window-width="1600"
   inkscape:window-height="838"
   id="namedview61"
   showgrid="false"
   fit-margin-top="10"
   fit-margin-left="10"
   fit-margin-right="10"
   fit-margin-bottom="10"
   inkscape:zoom="1.8006129"
   inkscape:cx="92.571996"
   inkscape:cy="112.62626"
   inkscape:window-x="-8"
   inkscape:window-y="-8"
   inkscape:window-maximized="1"
   inkscape:current-layer="Layer_1" />
<g
   id="g3"
   transform="matrix(1.582608,0,0,1,10.593474,10.0625)">
	<polyline
   points="0.495,156.057 1.248,156.057 2.001,156.057 2.755,155.188 3.509,154.326    4.264,153.455 5.018,153.455 5.772,154.326 6.533,154.326 7.287,155.188 8.042,156.057 8.794,156.057 9.548,151.721    10.304,140.457 11.057,122.258 11.811,98.002 12.565,69.4 13.319,44.272 14.074,29.54 14.828,27.807 15.581,40.806 16.334,63.339    17.088,91.063 17.851,116.198 18.604,136.127 19.358,149.119 20.112,155.188 20.866,156.057 21.62,156.057 22.375,156.057    23.127,155.188 23.881,154.326 24.636,153.455 25.39,153.455 26.144,154.326 26.898,154.326 27.652,156.057 28.406,156.057    29.167,156.057 29.92,153.455 30.674,144.793 31.429,130.922 32.184,111.862 32.937,89.33 33.691,68.538 34.445,56.401    35.199,54.668 35.953,65.072 36.708,83.27 37.46,102.329 38.214,117.06 38.969,122.258 39.723,116.198 40.477,102.329    41.238,84.131 41.992,69.4 42.746,63.339 43.5,67.668 44.253,82.399 45.007,103.198 45.762,122.258 46.516,138.723 47.27,145.654    48.024,141.326 48.778,127.457 49.533,108.397 50.286,87.596 51.041,71.132 51.793,63.339 52.555,65.935 53.31,78.071    54.063,96.268 54.817,116.198 55.571,132.654 56.325,145.654 57.079,153.455 57.833,156.057 58.586,156.057 59.34,156.057    60.095,156.057 60.849,156.057 61.603,156.057 62.357,156.057 63.111,156.057 63.866,156.057 64.625,156.057 65.379,156.057    66.133,156.057 66.888,156.057 67.642,156.057 68.396,156.057 69.15,156.057 69.904,156.057 70.658,156.057 71.412,156.057    72.166,156.057 72.919,156.057 73.673,156.057 74.428,156.057 75.182,156.057 75.943,156.057 76.697,156.057 77.452,156.057    78.205,156.057 78.958,156.057 79.712,156.057 80.466,156.057 81.221,156.057 81.976,156.057 82.729,156.057 83.483,156.057    84.237,156.057 84.991,156.057 85.745,156.057 86.499,156.057 87.261,156.057 88.014,156.057 88.768,156.057 89.522,156.057    90.276,156.057 91.03,156.057 91.785,156.057 92.538,156.057 93.292,156.057 94.045,156.057 94.799,156.057 95.554,156.057    96.309,156.057 97.062,156.057 97.816,156.057 98.57,156.057 99.332,156.057 100.084,156.057 100.838,156.057 101.592,156.057    102.347,156.057 103.101,156.057 103.855,156.057 104.609,156.057 105.363,156.057 106.117,156.057 106.871,156.057    107.625,156.057 108.378,156.057 109.132,156.057 109.887,156.057 110.648,156.057 111.402,156.057 112.156,156.057    112.91,156.057 113.665,156.057 114.417,156.057 115.171,156.057 115.925,156.057 116.68,156.057 117.434,156.057 118.188,156.057    118.942,156.057 119.696,156.057 120.45,156.057 121.204,156.057 121.964,156.057 122.719,156.057 123.473,156.057    124.227,156.057 124.981,156.057 125.735,156.057 126.489,156.057 127.243,156.057 127.997,156.057 128.75,156.057    129.504,156.057 130.258,156.057 131.013,156.057 131.767,156.057 132.521,156.057 133.275,156.057 134.036,156.057    134.79,155.188 135.543,154.326 136.297,153.455 137.052,153.455 137.806,153.455 138.56,154.326 139.314,155.188 140.068,156.057    140.822,156.057 141.576,153.455 142.33,144.793 143.083,130.922 143.837,110.993 144.591,87.596 145.354,65.935 146.107,52.073    146.861,50.34 147.616,59.003 148.369,78.071 149.124,101.466 149.876,122.258 150.63,138.723 151.384,149.988 152.139,155.188    152.893,156.057 153.646,156.057 154.401,156.057 155.155,156.057 155.909,156.057 156.663,156.057 157.423,156.057    158.178,156.057 158.933,156.057 159.686,156.057 160.441,156.057 161.195,156.057 161.949,156.057 162.702,156.057    163.457,156.057 164.209,156.057 164.963,156.057 165.717,156.057 166.472,156.057 167.226,156.057 167.979,156.057    168.742,156.057 169.495,156.057 170.249,156.057 171.002,156.057 171.756,156.057 172.511,156.057 173.266,156.057    174.019,156.057 174.774,156.057 175.528,156.057 176.282,156.057 177.035,156.057 177.79,156.057 178.542,156.057    179.296,156.057 180.058,156.057 180.814,156.057 181.567,156.057 182.321,156.057 183.074,156.057 183.828,156.057    184.582,156.057 185.335,156.057 186.089,156.057 186.844,156.057 187.598,156.057 188.352,156.057 189.107,156.057    189.861,156.057 190.615,156.057 191.368,156.057 192.128,156.057 192.882,156.057 193.637,156.057 194.391,156.057    195.146,156.057 195.9,156.057  "
   id="polyline5"
   style="fill:none;stroke:#217821;stroke-width:1.75636232;stroke-miterlimit:4;stroke-dasharray:none" />
	<polyline
   points="0.495,150.852 1.248,156.057 2.001,156.057 2.755,156.057 3.509,156.057    4.264,155.188 5.018,155.188 5.772,155.188 6.533,155.188 7.287,156.057 8.042,156.057 8.794,156.057 9.548,156.057    10.304,156.057 11.057,156.057 11.811,156.057 12.565,156.057 13.319,156.057 14.074,156.057 14.828,156.057 15.581,156.057    16.334,156.057 17.088,156.057 17.851,156.057 18.604,156.057 19.358,156.057 20.112,156.057 20.866,156.057 21.62,156.057    22.375,156.057 23.127,156.057 23.881,156.057 24.636,156.057 25.39,156.057 26.144,156.057 26.898,156.057 27.652,156.057    28.406,156.057 29.167,156.057 29.92,156.057 30.674,156.057 31.429,156.057 32.184,156.057 32.937,156.057 33.691,156.057    34.445,156.057 35.199,156.057 35.953,156.057 36.708,156.057 37.46,156.057 38.214,156.057 38.969,156.057 39.723,156.057    40.477,156.057 41.238,156.057 41.992,156.057 42.746,156.057 43.5,156.057 44.253,156.057 45.007,156.057 45.762,156.057    46.516,156.057 47.27,156.057 48.024,156.057 48.778,156.057 49.533,156.057 50.286,156.057 51.041,156.057 51.793,156.057    52.555,156.057 53.31,156.057 54.063,156.057 54.817,156.057 55.571,156.057 56.325,155.188 57.079,154.326 57.833,152.592    58.586,150.852 59.34,149.988 60.095,149.988 60.849,150.852 61.603,152.592 62.357,153.455 63.111,155.188 63.866,156.057    64.625,154.326 65.379,145.654 66.133,131.793 66.888,110.993 67.642,86.735 68.396,61.607 69.15,43.41 69.904,36.471    70.658,41.676 71.412,58.141 72.166,80.667 72.919,105.794 73.673,126.594 74.428,142.189 75.182,151.721 75.943,156.057    76.697,156.057 77.452,156.057 78.205,156.057 78.958,156.057 79.712,156.057 80.466,155.188 81.221,155.188 81.976,154.326    82.729,154.326 83.483,154.326 84.237,154.326 84.991,155.188 85.745,156.057 86.499,156.057 87.261,156.057 88.014,156.057    88.768,156.057 89.522,156.057 90.276,156.057 91.03,156.057 91.785,156.057 92.538,156.057 93.292,156.057 94.045,156.057    94.799,156.057 95.554,156.057 96.309,156.057 97.062,156.057 97.816,156.057 98.57,156.057 99.332,156.057 100.084,156.057    100.838,156.057 101.592,156.057 102.347,156.057 103.101,156.057 103.855,156.057 104.609,156.057 105.363,154.326    106.117,153.455 106.871,152.592 107.625,151.721 108.378,151.721 109.132,152.592 109.887,153.455 110.648,155.188    111.402,156.057 112.156,156.057 112.91,153.455 113.665,143.92 114.417,127.457 115.171,105.794 115.925,78.934 116.68,53.806    117.434,36.471 118.188,31.273 118.942,39.944 119.696,58.141 120.45,84.131 121.204,109.261 121.964,130.06 122.719,144.793    123.473,153.455 124.227,156.057 124.981,156.057 125.735,156.057 126.489,155.188 127.243,155.188 127.997,155.188    128.75,155.188 129.504,156.057 130.258,156.057 131.013,156.057 131.767,156.057 132.521,156.057 133.275,156.057    134.036,156.057 134.79,156.057 135.543,156.057 136.297,156.057 137.052,156.057 137.806,156.057 138.56,156.057 139.314,156.057    140.068,156.057 140.822,156.057 141.576,156.057 142.33,156.057 143.083,156.057 143.837,156.057 144.591,156.057    145.354,156.057 146.107,156.057 146.861,156.057 147.616,156.057 148.369,156.057 149.124,156.057 149.876,156.057    150.63,156.057 151.384,156.057 152.139,156.057 152.893,156.057 153.646,156.057 154.401,156.057 155.155,156.057    155.909,156.057 156.663,156.057 157.423,156.057 158.178,156.057 158.933,156.057 159.686,156.057 160.441,156.057    161.195,156.057 161.949,156.057 162.702,156.057 163.457,156.057 164.209,156.057 164.963,156.057 165.717,156.057    166.472,156.057 167.226,156.057 167.979,155.188 168.742,154.326 169.495,152.592 170.249,150.852 171.002,149.988    171.756,150.852 172.511,151.721 173.266,153.455 174.019,155.188 174.774,156.057 175.528,156.057 176.282,151.721    177.035,140.457 177.79,123.992 178.542,103.198 179.296,78.071 180.058,57.271 180.814,46.004 181.567,46.875 182.321,59.874    183.074,81.537 183.828,104.931 184.582,121.396 185.335,126.594 186.089,117.06 186.844,94.527 187.598,65.935 188.352,38.211    189.107,19.145 189.861,14.81 190.615,26.076 191.368,49.47 192.128,78.934 192.882,107.526 193.637,130.06 194.391,145.654    195.146,153.455 195.9,156.057  "
   id="polyline7"
   style="fill:none;stroke:#0044aa;stroke-width:1.75636232;stroke-miterlimit:4;stroke-dasharray:none" />
	<path
   d="m 0.495,155.188 0.753,-5.199 0.754,-9.531 0.754,-13 0.754,-15.595 0.755,-15.595 0.754,-10.404 0.754,-4.327 0.762,4.327 0.753,11.266 0.755,15.595 0.753,15.604 0.754,12.129 0.756,9.531 0.753,5.199 0.754,0.868 h 0.754 0.754 0.754 0.756 0.753 0.754 0.754 0.763 0.753 0.754 0.754 0.755 0.754 0.755 0.753 0.754 0.755 0.754 0.754 0.754 l 0.754,-0.868 h 0.754 l 0.762,-0.861 h 0.754 0.754 l 0.755,0.861 0.755,0.868 h 0.753 0.754 0.754 0.755 0.754 0.755 0.753 0.754 0.755 0.754 0.754 0.761 0.755 0.754 0.754 0.754 0.754 0.755 0.754 0.754 0.754 0.754 0.755 0.754 0.755 0.746 0.762 0.755 0.753 0.754 0.754 0.755 0.754 0.754 0.754 0.754 0.755 0.754 0.754 0.754 0.754 l 0.755,-0.868 h 0.761 l 0.754,-0.861 0.754,-0.871 0.755,-0.863 h 0.754 0.754 0.754 l 0.754,0.863 0.755,0.871 0.754,0.861 0.754,0.868 h 0.754 0.754 0.755 0.754 0.761 l 0.754,-1.729 0.756,-2.605 0.753,-1.731 0.754,-2.603 0.754,-0.862 0.754,0.862 0.755,2.603 0.755,1.731 0.753,2.605 0.754,1.729 0.754,-3.465 0.755,-12.135 0.754,-19.932 0.754,-27.73 0.763,-33.792 0.753,-32.059 0.754,-20.8 0.754,-6.061 0.754,11.258 0.754,26.868 0.75,33.792 0.753,32.06 0.754,25.996 0.754,12.132 0.754,-2.597 0.755,-16.465 0.755,-20.8 0.753,-24.258 0.754,-19.067 0.754,-8.663 0.763,3.466 0.753,14.731 0.754,21.663 0.754,22.524 0.755,19.067 0.754,13.861 0.754,7.801 0.754,2.602 h 0.754 0.755 0.754 0.754 0.754 0.754 0.755 0.761 0.754 l 0.755,-0.868 h 0.754 l 0.755,-0.861 h 0.753 0.754 l 0.754,0.861 h 0.755 l 0.754,0.868 h 0.738 0.754 0.754 0.755 0.754 0.761 0.755 0.754 0.754 0.754 0.754 0.754 0.755 0.754 0.754 0.754 l 0.754,-0.868 0.755,-0.861 h 0.754 l 0.754,-0.871 0.754,0.871 h 0.762 l 0.754,0.861 0.754,0.868 h 0.754 0.755 0.754 0.754 0.754 0.754 0.754 0.755 0.754 0.754 0.754 0.754 0.763 0.753 0.754 0.755 0.754 0.755 0.753 0.754 0.754 0.755 0.754 0.753 0.755 0.754 0.755 l 0.754,-0.868 0.761,-0.861 h 0.755 l 0.755,-0.871 h 0.753 l 0.755,0.871 0.754,0.861 0.754,0.868 h 0.754 0.755 0.753 0.754 0.754 0.755 0.754 0.753 0.764 0.753 0.754 0.754 0.754 0.755 0.755 0.753 0.755 0.754 0.754 0.754 l 0.755,-0.868 h 0.753 0.754 0.762 0.756 l 0.753,0.868 h 0.754 0.754 0.754 0.754 0.754 0.754 0.755 0.754 0.754 c 2.396,0 4.789,-0.065 7.187,-0.065"
   id="path9"
   inkscape:connector-curvature="0"
   style="fill:none;stroke:#000000;stroke-width:1.75636232;stroke-miterlimit:4;stroke-dasharray:none" />
	<path
   d="m 0.495,156.057 h 0.753 0.754 0.754 0.754 0.755 0.754 0.754 0.762 0.754 0.755 0.753 0.754 0.756 0.753 0.754 0.754 0.754 0.754 0.756 0.753 0.754 0.754 l 0.763,-1.729 0.753,-8.672 0.754,-14.732 0.754,-20.792 0.755,-24.266 0.754,-25.989 0.755,-18.198 0.753,-7.8 0.754,4.335 0.755,15.596 0.754,22.53 0.754,25.992 0.754,21.663 0.754,16.465 0.754,10.396 0.762,5.205 h 0.754 0.754 0.755 0.755 0.753 0.754 0.754 0.755 0.754 0.755 0.753 0.754 0.755 0.754 0.754 0.761 0.755 0.754 0.754 0.754 0.754 0.755 0.754 0.754 0.754 0.754 0.755 0.754 0.755 0.745 0.762 0.755 0.753 l 0.754,-6.938 0.754,-12.127 0.755,-19.062 0.753,-22.534 0.754,-25.999 0.754,-19.931 0.746,-9.526 0.755,0.861 0.754,13 0.754,19.93 0.754,23.396 0.754,22.533 0.755,16.463 0.761,11.26 0.754,6.068 0.754,2.602 h 0.755 0.754 0.754 0.754 0.754 0.755 0.754 0.754 l 0.754,-2.602 0.754,-9.535 0.755,-14.729 0.754,-19.061 0.761,-23.395 0.754,-20.801 0.756,-13.861 0.753,-4.335 0.754,6.931 0.754,15.603 0.754,19.931 0.755,20.792 0.755,18.196 0.753,13 0.754,8.662 0.754,4.336 0.755,0.868 h 0.754 0.754 0.763 0.753 0.754 0.754 0.754 0.754 0.756 0.753 0.754 0.754 0.754 0.755 0.755 0.753 0.754 0.754 0.763 0.753 0.754 0.754 0.755 0.754 l 0.754,-0.868 0.754,-6.933 0.754,-14.729 0.755,-20.8 0.754,-25.991 0.754,-27.731 0.754,-21.663 0.754,-9.533 0.755,4.337 0.761,16.464 0.754,24.26 0.755,27.729 0.754,23.396 0.755,16.465 0.753,11.264 0.754,4.336 h 0.754 0.755 0.754 0.746 0.754 0.754 0.755 l 0.754,-1.729 0.761,-8.672 0.755,-15.596 0.754,-20.799 0.754,-25.991 0.754,-25.129 0.753,-18.197 0.754,-6.938 0.755,5.206 0.754,16.457 0.754,24.266 0.754,24.265 0.754,21.663 0.755,13.86 0.754,4.337 0.754,-5.199 0.754,-11.267 0.762,-15.601 0.754,-15.595 0.754,-11.268 0.754,-4.328 0.755,2.597 0.754,9.532 0.754,13.862 0.754,15.604 0.754,13.86 0.754,10.396 0.755,6.938 0.754,2.597 0.754,0.868 h 0.754 0.754 0.763 0.753 0.754 0.755 l 0.754,-0.868 0.755,-9.533 0.753,-17.326 0.754,-25.13 0.754,-32.066 0.755,-33.792 0.754,-25.997 0.753,-11.258 0.755,4.327 0.754,19.93 0.755,29.464 0.754,33.79 0.761,28.603 0.755,20.794 0.755,10.395 0.753,-0.862 0.755,-8.664 0.754,-10.402 0.754,-11.259 0.754,-7.801 0.755,-2.604 0.753,3.467 0.754,8.67 0.754,11.26 0.755,9.532 0.754,7.802 0.754,1.731 0.763,-4.336 0.753,-8.662 0.754,-11.266 0.754,-12.13 0.754,-8.664 0.755,-3.466 0.755,2.597 0.753,7.801 0.755,11.268 0.754,12.129 0.754,9.533 0.754,6.93 0.755,5.199 0.753,0.868 c 0,0 0.754,0 0.755,0 5.24,0 10.479,-0.315 15.74,-0.315"
   id="path11"
   inkscape:connector-curvature="0"
   style="fill:none;stroke:#aa0000;stroke-width:1.75636232;stroke-miterlimit:4;stroke-dasharray:none" />
</g>
<g
   id="g13"
   transform="matrix(1.582608,0,0,1.6795751,10.593474,-94.67802)">
	<text
   transform="translate(2.6592,178.5205)"
   font-size="10.0569"
   id="text15"
   style="font-size:10.05690002px;font-family:CourierNewPSMT">G</text>

	<text
   transform="translate(11.7153,178.5205)"
   font-size="10.0569"
   id="text17"
   style="font-size:10.05690002px;fill:#008000;font-family:CourierNewPSMT">A</text>

	<text
   transform="translate(20.7661,178.5205)"
   font-size="10.0569"
   id="text19"
   style="font-size:10.05690002px;fill:#aa0000;font-family:CourierNewPSMT">T</text>

	<text
   transform="translate(32.0825,178.5205)"
   font-size="10.0569"
   id="text21"
   style="font-size:10.05690002px;fill:#008000;font-family:CourierNewPSMT">A</text>

	<text
   transform="translate(26.0469,167.2021)"
   font-size="10.0569"
   id="text23"
   style="font-size:10.53817368px;font-style:normal;font-variant:normal;font-weight:normal;font-stretch:normal;font-family:Arial;-inkscape-font-specification:Arial">120</text>

	<text
   transform="translate(40.377,178.5205)"
   font-size="10.0569"
   id="text25"
   style="font-size:10.05690002px;fill:#008000;font-family:CourierNewPSMT">A</text>

	<text
   transform="translate(49.4351,178.5205)"
   font-size="10.0569"
   id="text27"
   style="font-size:10.05690002px;fill:#008000;font-family:CourierNewPSMT">A</text>

	<text
   transform="translate(56.9761,178.5205)"
   font-size="10.0569"
   id="text29"
   style="font-size:10.05690002px;fill:#aa0000;font-family:CourierNewPSMT">T</text>

	<text
   transform="translate(67.542,178.5205)"
   font-size="10.0569"
   id="text31"
   style="font-size:10.05690002px;fill:#0044aa;font-family:CourierNewPSMT">C</text>

	<text
   transform="translate(75.8433,178.5205)"
   font-size="10.0569"
   id="text33"
   style="font-size:10.05690002px;fill:#aa0000;font-family:CourierNewPSMT">T</text>

	<text
   transform="translate(86.3999,178.5205)"
   font-size="10.0569"
   id="text35"
   style="font-size:10.05690002px;font-family:CourierNewPSMT">G</text>

	<text
   transform="translate(96.2114,178.5205)"
   font-size="10.0569"
   id="text37"
   style="font-size:10.05690002px;font-family:CourierNewPSMT">G</text>

	<text
   transform="translate(106.7739,178.5205)"
   font-size="10.0569"
   id="text39"
   style="font-size:10.05690002px;fill:#aa0000;font-family:CourierNewPSMT">T</text>

	<text
   transform="translate(115.0688,178.5205)"
   font-size="10.0569"
   id="text41"
   style="font-size:10.05690002px;fill:#0044aa;font-family:CourierNewPSMT">C</text>

	<text
   transform="translate(124.1265,178.5205)"
   font-size="10.0569"
   id="text43"
   style="font-size:10.05690002px;fill:#aa0000;font-family:CourierNewPSMT">T</text>

	<text
   transform="translate(118.0913,167.2021)"
   font-size="10.0569"
   id="text45"
   style="font-size:10.05690002px;font-family:CourierNewPSMT"><tspan
     style="font-size:10.53817368px;font-style:normal;font-variant:normal;font-weight:normal;font-stretch:normal;font-family:Arial;-inkscape-font-specification:Arial"
     id="tspan3042">130</tspan></text>

	<text
   transform="translate(133.9341,178.5205)"
   font-size="10.0569"
   id="text47"
   style="font-size:10.05690002px;fill:#aa0000;font-family:CourierNewPSMT">T</text>

	<text
   transform="translate(143.7417,178.5205)"
   font-size="10.0569"
   id="text49"
   style="font-size:10.05690002px;fill:#008000;font-family:CourierNewPSMT">A</text>

	<text
   transform="translate(151.2866,178.5205)"
   font-size="10.0569"
   id="text51"
   style="font-size:10.05690002px;fill:#aa0000;font-family:CourierNewPSMT">T</text>

	<text
   transform="translate(160.3394,178.5205)"
   font-size="10.0569"
   id="text53"
   style="font-size:10.05690002px;fill:#aa0000;font-family:CourierNewPSMT">T</text>

	<text
   transform="translate(170.1479,178.5205)"
   font-size="10.0569"
   id="text55"
   style="font-size:10.05690002px;fill:#aa0000;font-family:CourierNewPSMT">T</text>

	<text
   transform="translate(178.4468,178.5205)"
   font-size="10.0569"
   id="text57"
   style="font-size:10.05690002px;fill:#0044aa;font-family:CourierNewPSMT">C</text>

	<text
   transform="translate(186.7456,178.5205)"
   font-size="10.0569"
   id="text59"
   style="font-size:10.05690002px;fill:#0044aa;font-family:CourierNewPSMT">C</text>

</g>
</svg>