<?xml version="1.0" encoding="utf-8"?>
<!-- Generator: Adobe Illustrator 16.0.0, SVG Export Plug-In . SVG Version: 6.00 Build 0)  -->
<!DOCTYPE svg PUBLIC "-//W3C//DTD SVG 1.1//EN" "http://www.w3.org/Graphics/SVG/1.1/DTD/svg11.dtd">
<svg version="1.1" id="Layer_1" xmlns="http://www.w3.org/2000/svg" xmlns:xlink="http://www.w3.org/1999/xlink" x="0px" y="0px"
	 width="249.681px" height="104.499px" viewBox="0 0 249.681 104.499" enable-background="new 0 0 249.681 104.499"
	 xml:space="preserve">
<g>
	<rect x="8.967" y="5.805" width="7.933" height="76.35"/>
	<rect x="69.219" y="23.922" width="7.933" height="58.232"/>
	<polygon points="56.248,23.922 45.031,23.922 16.899,52.049 16.961,52.068 16.899,52.084 46.972,82.154 58.19,82.154 
		28.103,52.068 	"/>
	<rect x="1.438" y="5.805" width="15.462" height="7.936"/>
	<rect x="61.688" y="23.922" width="15.464" height="7.936"/>
	<rect y="74.223" width="23.523" height="7.932"/>
	<rect x="61.688" y="74.223" width="22.8" height="7.932"/>
	<rect x="47.149" y="74.223" width="11.041" height="7.932"/>
	<rect x="29.307" y="23.922" width="28.884" height="7.936"/>
	<polygon points="159.108,4.409 119.923,53.479 103.157,31.857 97.005,23.922 86.967,23.922 80.523,23.922 80.523,31.857 
		93.12,31.857 114.904,59.951 119.923,66.424 124.941,59.951 169.146,4.409 	"/>
	<g>
		<path d="M78.18,7.609c0,3.168-2.592,5.76-5.76,5.76h-1.882c-3.168,0-5.76-2.592-5.76-5.76V5.76c0-3.168,2.592-5.76,5.76-5.76
			h1.882c3.168,0,5.76,2.592,5.76,5.76V7.609z"/>
	</g>
	<path d="M216.615,38.006c0.111-1.062,0.177-2.135,0.177-3.227c0-16.564-13.424-29.99-29.987-29.99
		c-16.564,0-29.991,13.426-29.991,29.99c0,16.562,13.427,29.99,29.991,29.99c11.74,0,23.737-4.84,28.828-15.965L208,45.369
		c-3.752,6.83-12.867,11.465-21.195,11.465c-11.064,0-18.96-8.195-20.527-18.832L216.615,38.006z M186.805,12.723
		c10.891,0,19.289,7.945,21.068,18.338h-41.518C168.133,20.668,175.915,12.723,186.805,12.723z"/>
	<g>
		<path d="M202.611,94.502c1.256,3.536-0.609,7.457-4.145,8.714l-2.101,0.746c-3.536,1.257-7.456-0.607-8.713-4.144l-0.734-2.066
			c-1.257-3.536,0.608-7.456,4.146-8.712l2.1-0.747c3.537-1.256,7.457,0.609,8.714,4.146L202.611,94.502z"/>
	</g>
	<g>
		<path d="M222.709,81.641c2.599,2.707,2.51,7.048-0.196,9.647l-1.607,1.542c-2.706,2.6-7.047,2.511-9.646-0.195l-1.516-1.579
			c-2.6-2.706-2.512-7.047,0.195-9.646l1.608-1.544c2.706-2.599,7.047-2.511,9.646,0.196L222.709,81.641z"/>
	</g>
	<g>
		<path d="M238.133,62.69c3.153,2.033,4.069,6.277,2.035,9.431l-1.209,1.874c-2.034,3.153-6.278,4.069-9.432,2.035l-1.839-1.186
			c-3.153-2.034-4.069-6.278-2.036-9.432l1.209-1.872c2.033-3.153,6.277-4.069,9.432-2.036L238.133,62.69z"/>
	</g>
	<g>
		<path d="M243.604,37.21c3.729,0.41,6.445,3.797,6.036,7.526l-0.243,2.216c-0.41,3.729-3.797,6.446-7.527,6.036l-2.178-0.238
			c-3.729-0.41-6.445-3.797-6.036-7.526l0.243-2.217c0.41-3.729,3.797-6.446,7.527-6.036L243.604,37.21z"/>
	</g>
	<g>
		<path d="M179.576,99.275c-0.129,2.999-2.688,5.348-5.688,5.219l-1.782-0.076c-2.999-0.129-5.349-2.688-5.22-5.688l0.074-1.75
			c0.129-2.999,2.688-5.349,5.687-5.22l1.785,0.076c2.999,0.129,5.348,2.688,5.219,5.687L179.576,99.275z"/>
	</g>
	<g>
		<path d="M160.628,97.838c-0.897,2.228-3.455,3.315-5.683,2.417l-1.322-0.532c-2.228-0.898-3.315-3.455-2.418-5.683l0.525-1.303
			c0.897-2.228,3.454-3.314,5.682-2.417l1.324,0.534c2.227,0.898,3.314,3.455,2.416,5.683L160.628,97.838z"/>
	</g>
	<g>
		<path d="M145.967,90.683c-1.281,1.433-3.5,1.558-4.934,0.277l-0.851-0.759c-1.433-1.28-1.558-3.499-0.278-4.932l0.748-0.837
			c1.279-1.433,3.5-1.558,4.933-0.278l0.852,0.761c1.433,1.279,1.558,3.498,0.278,4.931L145.967,90.683z"/>
	</g>
	<g>
		<path d="M136.004,81.654c-1.159,1.009-2.933,0.887-3.942-0.272l-0.6-0.69c-1.01-1.159-0.887-2.934,0.272-3.942l0.677-0.589
			c1.159-1.009,2.933-0.887,3.941,0.272l0.602,0.69c1.009,1.159,0.886,2.934-0.273,3.942L136.004,81.654z"/>
	</g>
	<g>
		<path d="M128.582,72.168c-1.046,0.646-2.431,0.32-3.077-0.726l-0.383-0.619c-0.646-1.046-0.319-2.431,0.727-3.078l0.607-0.376
			c1.045-0.647,2.43-0.321,3.078,0.724l0.384,0.619c0.647,1.045,0.321,2.43-0.724,3.076L128.582,72.168z"/>
	</g>
</g>
</svg>
